<svg width="29" height="32" viewBox="0 0 29 32" fill="none" xmlns="http://www.w3.org/2000/svg">
<path d="M0 0.884096L0 30.368C0 31.7538 1.8718 31.3841 4.16667 31.3841L13.4116 31.3841C13.4116 32.7699 15.7129 31.3841 13.4116 31.3841L23 20.1052L28.7372 15.2828C28.9167 15.1705 29 15.0273 29 14.8841C29 14.737 28.9103 14.5899 28.7244 14.4776L23 10.1052L13.4116 0.884096C15.7129 0.884096 13.4116 -0.501713 13.4116 0.884096L4.16667 0.384079C1.8718 0.384079 0 -0.501713 0 0.884096ZM15.037 1.8841C16.2806 1.8841 15.037 1.137 15.037 1.8841L19 11.1052C19 11.2562 14.3269 14.2521 19 12.6052L18.5 16.1052V19.0376C18.3333 19.146 17.5962 20.405 19.5 19.6052L13.4116 30.368C13.4116 31.1151 14.6488 30.368 13.4116 30.368H4.16667C2.92949 30.368 1.92308 31.1151 1.92308 30.368L1.92308 1.8841C1.92308 1.137 2.92949 1.38408 4.16667 1.38408L15.037 1.8841Z" fill="black"/>
</svg>
